<?xml version="1.0" encoding="iso-8859-1"?>
<!-- Uploaded to: SVG Repo, www.svgrepo.com, Generator: SVG Repo Mixer Tools -->
<svg fill="#DDDDDD" height="800px" width="800px" version="1.1" id="Layer_1" xmlns="http://www.w3.org/2000/svg"
	 viewBox="0 0 511.842 511.842" xml:space="preserve">
<g>
	<g>
		<g>
			<path d="M405.145,106.509h-23.953c-22.156-85.961-173.586-138.302-240.398-85C85.843,25.823,42.59,71.783,42.59,127.842
				c0,24.015,7.939,46.175,21.333,64.004v63.996c0,9.182,5.876,17.335,14.587,20.239l22.619,7.54l-27.707,18.471
				c-12.666,8.444-12.666,27.057,0,35.501l37.374,24.916l-37.374,24.916c-5.935,3.957-9.5,10.618-9.5,17.75v42.667
				c0,7.133,3.565,13.794,9.5,17.75l64,42.667c7.166,4.777,16.501,4.777,23.667,0l64-42.667c5.935-3.957,9.5-10.618,9.5-17.75
				V191.846c13.394-17.829,21.333-39.989,21.333-64.004c0-35.016-16.876-66.092-42.938-85.541
				c46.38,0.809,105.273,28.358,122.985,64.207h-15.945c-35.398,0-64.107,28.709-64.107,64.107v170.453
				c0,35.398,28.709,64.107,64.107,64.107h85.12c35.398,0,64.107-28.709,64.107-64.107V170.615
				C469.252,135.217,440.544,106.509,405.145,106.509z M149.256,464.869l-42.667-28.444v-19.832l54.5-36.333
				c12.666-8.444,12.666-27.057,0-35.501l-37.374-24.916l37.374-24.916c14.771-9.847,11.754-32.375-5.087-37.989l-49.413-16.471
				v-14.842c13.067,5.71,27.495,8.885,42.667,8.885s29.6-3.175,42.667-8.885v210.801L149.256,464.869z M149.256,191.842
				c-35.343,0-64-28.657-64-64s28.657-64,64-64s64,28.657,64,64S184.6,191.842,149.256,191.842z M426.585,341.069
				c0,11.834-9.606,21.44-21.44,21.44h-85.12c-11.834,0-21.44-9.606-21.44-21.44V170.615c0-11.834,9.606-21.44,21.44-21.44h85.12
				c11.834,0,21.44,9.606,21.44,21.44V341.069z"/>
			<path d="M149.256,85.175c-11.776,0-21.333,9.557-21.333,21.333s9.557,21.333,21.333,21.333s21.333-9.557,21.333-21.333
				S161.032,85.175,149.256,85.175z"/>
			<path d="M362.59,170.509c-11.776,0-21.333,9.557-21.333,21.333s9.557,21.333,21.333,21.333s21.333-9.557,21.333-21.333
				S374.366,170.509,362.59,170.509z"/>
			<path d="M362.59,234.509c-11.782,0-21.333,9.551-21.333,21.333v64c0,11.782,9.551,21.333,21.333,21.333
				c11.782,0,21.333-9.551,21.333-21.333v-64C383.923,244.06,374.372,234.509,362.59,234.509z"/>
		</g>
	</g>
</g>
</svg>